<svg width="48" height="48" viewBox="0 0 48 48" fill="none" xmlns="http://www.w3.org/2000/svg">
<path d="M41 20.7013C41 21.8076 41 20.4251 41 6.39378C41 5.79081 40.728 5.21186 40.2596 4.83211L39.2596 4.0213C38.5254 3.42598 37.4746 3.42598 36.7404 4.0213L35 5.43243" stroke="#FF498B" stroke-width="3" stroke-linecap="round"/>
<path d="M5.5 28.5H42.5V39C42.5 40.933 40.933 42.5 39 42.5H9C7.067 42.5 5.5 40.933 5.5 39V28.5Z" stroke="#152C5B" stroke-width="3"/>
<path d="M1.5 24C1.5 22.6193 2.61929 21.5 4 21.5H44C45.3807 21.5 46.5 22.6193 46.5 24V26C46.5 27.3807 45.3807 28.5 44 28.5H4C2.61929 28.5 1.5 27.3807 1.5 26V24Z" stroke="#152C5B" stroke-width="3"/>
<path d="M11 43C11 45.877 11 46.1604 11 45.9424" stroke="#152C5B" stroke-width="3" stroke-linecap="round"/>
<path d="M37 43C37 45.877 37 46.1604 37 45.9424" stroke="#152C5B" stroke-width="3" stroke-linecap="round"/>
</svg>
