<svg width="48" height="48" viewBox="0 0 48 48" fill="none" xmlns="http://www.w3.org/2000/svg">
<path d="M1.5 8C1.5 6.61929 2.61929 5.5 4 5.5H44C45.3807 5.5 46.5 6.61929 46.5 8V22C46.5 23.3807 45.3807 24.5 44 24.5H4C2.61929 24.5 1.5 23.3807 1.5 22V8Z" stroke="#152C5B" stroke-width="3"/>
<path d="M45 19C3.76229 19.0287 -0.298995 19.0315 2.82507 19.0293" stroke="#152C5B" stroke-width="3" stroke-linecap="round"/>
<path d="M40 29C39.9423 29.0624 39.8857 29.1236 39.8302 29.1836C36.4736 32.8133 36.2748 38.3361 39.3602 42.199C39.5567 42.445 39.7695 42.7114 40 43" stroke="#152C5B" stroke-width="3" stroke-linecap="round"/>
<path d="M8.00001 29C8.05769 29.0624 8.11427 29.1236 8.16975 29.1836C11.5264 32.8133 11.7252 38.3361 8.63978 42.199C8.44333 42.445 8.23052 42.7114 8 43" stroke="#152C5B" stroke-width="3" stroke-linecap="round"/>
<path d="M32 29C31.9423 29.0624 31.8857 29.1236 31.8302 29.1836C28.4736 32.8133 28.2748 38.3361 31.3602 42.199C31.5567 42.445 31.7695 42.7114 32 43" stroke="#152C5B" stroke-width="3" stroke-linecap="round"/>
<path d="M16 29C16.0577 29.0624 16.1143 29.1236 16.1698 29.1836C19.5264 32.8133 19.7252 38.3361 16.6398 42.199C16.4433 42.445 16.2305 42.7114 16 43" stroke="#152C5B" stroke-width="3" stroke-linecap="round"/>
<path d="M28 12C20.3279 12 19.5723 12 20.1535 12" stroke="#FF498B" stroke-width="3" stroke-linecap="round"/>
</svg>
