<svg width="48" height="48" viewBox="0 0 48 48" fill="none" xmlns="http://www.w3.org/2000/svg">
<path d="M30.5 40.5C30.5 41.6457 29.4516 43.1445 26.6771 44.4451C24.0221 45.6896 20.2488 46.5 16 46.5C11.7512 46.5 7.97793 45.6896 5.32294 44.4451C2.54839 43.1445 1.5 41.6457 1.5 40.5C1.5 39.3543 2.54839 37.8555 5.32294 36.5549C7.97793 35.3104 11.7512 34.5 16 34.5C20.2488 34.5 24.0221 35.3104 26.6771 36.5549C29.4516 37.8555 30.5 39.3543 30.5 40.5Z" stroke="#152C5B" stroke-width="3"/>
<path d="M26.5 11.8571C26.5 14.9085 25.207 22.1492 23.0606 28.6649C21.9912 31.9112 20.7439 34.8699 19.4036 36.9868C18.733 38.0458 18.0783 38.8311 17.464 39.3377C16.8534 39.8413 16.3712 40 16 40C15.6288 40 15.1466 39.8413 14.536 39.3377C13.9217 38.8311 13.267 38.0458 12.5964 36.9868C11.2561 34.8699 10.0088 31.9112 8.93941 28.6649C6.79299 22.1492 5.5 14.9085 5.5 11.8571C5.5 6.15394 10.184 1.5 16 1.5C21.816 1.5 26.5 6.15394 26.5 11.8571Z" fill="white" stroke="#152C5B" stroke-width="3"/>
<circle cx="16" cy="13" r="4.5" stroke="#FF498B" stroke-width="3"/>
</svg>
