<svg width="48" height="48" viewBox="0 0 48 48" fill="none" xmlns="http://www.w3.org/2000/svg">
<path d="M18 11C18 16.7541 18 17.3208 18 16.8849" stroke="#152C5B" stroke-width="3" stroke-linecap="round"/>
<path d="M32 11C32 16.7541 32 17.3208 32 16.8849" stroke="#152C5B" stroke-width="3" stroke-linecap="round"/>
<path d="M6.81034 19.9435C7.22093 19.0629 8.10454 18.5 9.07615 18.5H38.4656C39.4726 18.5 40.3813 19.1041 40.7709 20.0326L43.2888 26.0326C43.9801 27.6801 42.7702 29.5 40.9835 29.5H6.27853C4.44983 29.5 3.23994 27.6009 4.01272 25.9435L6.81034 19.9435Z" stroke="#152C5B" stroke-width="3"/>
<mask id="path-4-inside-1" fill="white">
<path d="M9 47C11.2091 47 13 45.2091 13 43L13 29C13 28.4477 12.5523 28 12 28L6 28C5.44772 28 5 28.4477 5 29L5 43C5 45.2091 6.79086 47 9 47Z"/>
</mask>
<path d="M9 47C11.2091 47 13 45.2091 13 43L13 29C13 28.4477 12.5523 28 12 28L6 28C5.44772 28 5 28.4477 5 29L5 43C5 45.2091 6.79086 47 9 47Z" stroke="#152C5B" stroke-width="6" mask="url(#path-4-inside-1)"/>
<mask id="path-5-inside-2" fill="white">
<path d="M39 47C36.7909 47 35 45.2091 35 43L35 29C35 28.4477 35.4477 28 36 28L42 28C42.5523 28 43 28.4477 43 29L43 43C43 45.2091 41.2091 47 39 47Z"/>
</mask>
<path d="M39 47C36.7909 47 35 45.2091 35 43L35 29C35 28.4477 35.4477 28 36 28L42 28C42.5523 28 43 28.4477 43 29L43 43C43 45.2091 41.2091 47 39 47Z" stroke="#152C5B" stroke-width="6" mask="url(#path-5-inside-2)"/>
<mask id="path-6-inside-3" fill="white">
<path d="M18 12C15.7909 12 14 10.2091 14 8L14 3C14 2.44772 14.4477 2 15 2L21 2C21.5523 2 22 2.44771 22 3L22 8C22 10.2091 20.2091 12 18 12Z"/>
</mask>
<path d="M18 12C15.7909 12 14 10.2091 14 8L14 3C14 2.44772 14.4477 2 15 2L21 2C21.5523 2 22 2.44771 22 3L22 8C22 10.2091 20.2091 12 18 12Z" stroke="#FF498B" stroke-width="6" mask="url(#path-6-inside-3)"/>
<mask id="path-7-inside-4" fill="white">
<path d="M32 12C29.7909 12 28 10.2091 28 8L28 3C28 2.44772 28.4477 2 29 2L35 2C35.5523 2 36 2.44771 36 3L36 8C36 10.2091 34.2091 12 32 12Z"/>
</mask>
<path d="M32 12C29.7909 12 28 10.2091 28 8L28 3C28 2.44772 28.4477 2 29 2L35 2C35.5523 2 36 2.44771 36 3L36 8C36 10.2091 34.2091 12 32 12Z" stroke="#FF498B" stroke-width="6" mask="url(#path-7-inside-4)"/>
</svg>
