<svg width="48" height="48" viewBox="0 0 48 48" fill="none" xmlns="http://www.w3.org/2000/svg">
<mask id="path-1-inside-1" fill="white">
<path fill-rule="evenodd" clip-rule="evenodd" d="M18.7932 6C18.0061 6 17.2923 6.46157 16.9693 7.17927L15.25 11H8C3.58172 11 0 14.5817 0 19V33C0 37.4183 3.58172 41 8 41H40C44.4183 41 48 37.4183 48 33V19C48 14.5817 44.4183 11 40 11H33L31.5029 7.25722C31.1992 6.4979 30.4637 6 29.6459 6H18.7932Z"/>
</mask>
<path d="M16.9693 7.17927L14.2336 5.94818V5.94818L16.9693 7.17927ZM15.25 11V14H17.1898L17.9858 12.2311L15.25 11ZM33 11L30.2146 12.1142L30.9689 14H33V11ZM31.5029 7.25722L28.7175 8.37139V8.37139L31.5029 7.25722ZM19.7051 8.41036C19.5436 8.76921 19.1867 9 18.7932 9V3C16.8256 3 15.041 4.15392 14.2336 5.94818L19.7051 8.41036ZM17.9858 12.2311L19.7051 8.41036L14.2336 5.94818L12.5142 9.76891L17.9858 12.2311ZM8 14H15.25V8H8V14ZM3 19C3 16.2386 5.23858 14 8 14V8C1.92487 8 -3 12.9249 -3 19H3ZM3 33V19H-3V33H3ZM8 38C5.23858 38 3 35.7614 3 33H-3C-3 39.0751 1.92487 44 8 44V38ZM40 38H8V44H40V38ZM45 33C45 35.7614 42.7614 38 40 38V44C46.0751 44 51 39.0751 51 33H45ZM45 19V33H51V19H45ZM40 14C42.7614 14 45 16.2386 45 19H51C51 12.9249 46.0751 8 40 8V14ZM33 14H40V8H33V14ZM28.7175 8.37139L30.2146 12.1142L35.7854 9.88583L34.2883 6.14305L28.7175 8.37139ZM29.6459 9C29.237 9 28.8693 8.75105 28.7175 8.37139L34.2883 6.14305C33.529 4.24475 31.6905 3 29.6459 3V9ZM18.7932 9H29.6459V3H18.7932V9Z" fill="#152C5B" mask="url(#path-1-inside-1)"/>
<circle cx="24" cy="26" r="6.5" stroke="#FF498B" stroke-width="3"/>
<path d="M39.9999 18C34.2459 18.0287 33.6792 18.0315 34.1151 18.0293" stroke="#152C5B" stroke-width="3" stroke-linecap="round"/>
</svg>
